<svg class="nav-link__icon" fill="none" xmlns="http://www.w3.org/2000/svg" xmlns:xlink="http://www.w3.org/1999/xlink" viewBox="0 0 25 25">
  <defs>
    <path fill-rule="evenodd" clip-rule="evenodd" d="M12.5 2.5c-5.52 0-10 4.48-10 10s4.48 10 10 10 10-4.48 10-10-4.48-10-10-10ZM7.57 18.78C8 17.88 10.62 17 12.5 17s4.51.88 4.93 1.78c-1.36 1.08-3.07 1.72-4.93 1.72-1.86 0-3.57-.64-4.93-1.72Zm11.29-1.45C17.43 15.59 13.96 15 12.5 15s-4.93.59-6.36 2.33C5.12 15.99 4.5 14.32 4.5 12.5c0-4.41 3.59-8 8-8s8 3.59 8 8c0 1.82-.62 3.49-1.64 4.83ZM12.5 6.5C10.56 6.5 9 8.06 9 10s1.56 3.5 3.5 3.5S16 11.94 16 10s-1.56-3.5-3.5-3.5Zm0 5c-.83 0-1.5-.67-1.5-1.5s.67-1.5 1.5-1.5S14 9.17 14 10s-.67 1.5-1.5 1.5Z" fill="currentColor" id="reuse-0"/>
  </defs>
  <use fill-rule="evenodd" clip-rule="evenodd" xlink:href="#reuse-0"/>
  <mask id="user" style="mask-type:luminance" maskUnits="userSpaceOnUse" x="2" y="2" width="21" height="21">
    <use fill-rule="evenodd" clip-rule="evenodd" xlink:href="#reuse-0"/>
  </mask>
</svg>
