<svg class="nav-link__icon" fill="none" xmlns="http://www.w3.org/2000/svg" viewBox="0 0 20 20">
  <path d="M18.7162 5.01031c-.6413.28446-1.3307.4767-2.054.56314.7382-.44261 1.3054-1.14347 1.5724-1.97864-.6911.40988-1.4564.7075-2.2711.86785-.6523-.69507-1.5817-1.12933-2.6104-1.12933-1.9751 0-3.57649 1.60122-3.57649 3.57629 0 .28029.03167.55326.09267.81504-2.97233-.14916-5.60762-1.57297-7.3715-3.73674-.30787.5282-.48423 1.14254-.48423 1.79798 0 1.2408.63135 2.33545 1.59101 2.97684-.5862-.01866-1.13772-.17949-1.61986-.44736-.00035.01494-.00035.02987-.00035.04495 0 1.73287 1.2328 3.17827 2.86885 3.50687-.30009.0817-.61605.1255-.94221.1255-.23045 0-.45449-.0225-.6729-.0642.45512 1.4207 1.77589 2.4548 3.3409 2.4836-1.22399.9593-2.76606 1.5311-4.44168 1.5311-.28867 0-.57335-.017-.85313-.0501C2.8669 16.9078 4.7468 17.5 6.76645 17.5 13.3447 17.5 16.942 12.0504 16.942 7.32431c0-.15503-.0035-.30927-.0104-.46269.6988-.50424 1.3052-1.13411 1.7846-1.85131Z" fill="currentColor"/>
</svg>
