<svg class="nav-link__icon" fill="none" xmlns="http://www.w3.org/2000/svg" viewBox="0 0 20 20">
  <path d="M6.50033 1.66669h6.99997c2.6694 0 4.8334 2.16396 4.8334 4.83333V13.5c0 2.6694-2.164 4.8333-4.8334 4.8333H6.50033c-2.66938 0-4.83334-2.1639-4.83334-4.8333V6.50002c0-2.66937 2.16396-4.83333 4.83334-4.83333Zm-.16667 1.66665c-1.65686 0-3 1.34315-3 3v7.33336c0 1.6568 1.34314 3 3 3H13.667c1.6568 0 3-1.3432 3-3V6.33334c0-1.65685-1.3432-3-3-3H6.33366Zm8.04164 1.25c.5754 0 1.0417.46637 1.0417 1.04166 0 .5753-.4663 1.04167-1.0417 1.04167-.5753 0-1.0416-.46637-1.0416-1.04167 0-.57529.4663-1.04166 1.0416-1.04166Zm-4.375 1.25c2.3012 0 4.1667 1.86548 4.1667 4.16666 0 2.3012-1.8655 4.1667-4.1667 4.1667-2.30117 0-4.16664-1.8655-4.16664-4.1667 0-2.30118 1.86547-4.16666 4.16664-4.16666Zm0 1.66666c-1.38072 0-2.49997 1.11934-2.49997 2.5 0 1.3808 1.11925 2.5 2.49997 2.5 1.3808 0 2.5-1.1192 2.5-2.5 0-1.38066-1.1192-2.5-2.5-2.5Z" fill="currentColor"/>
</svg>
