<svg class="nav-logo__image" viewBox="0 0 530 120" fill="none" xmlns="http://www.w3.org/2000/svg">
  <path d="M143.04 4.22v3.2c-3.413.107-5.973.533-7.68 1.28-1.707.64-2.88 1.92-3.52 3.84-.533 1.813-.8 4.693-.8 8.64v79.36c0 3.84.267 6.72.8 8.64.64 1.92 1.813 3.2 3.52 3.84 1.707.64 4.267 1.067 7.68 1.28v3.2c-2.987-.213-6.773-.32-11.36-.32-4.48-.107-9.067-.16-13.76-.16-5.12 0-9.92.053-14.4.16-4.48 0-8.107.107-10.88.32v-3.2c3.627-.213 6.347-.64 8.16-1.28 1.92-.64 3.2-1.92 3.84-3.84.64-1.92.96-4.8.96-8.64V13.98h1.12L67.04 117.66h-2.56L21.28 14.62v76.64c0 5.867.32 10.4.96 13.6.64 3.093 2.027 5.333 4.16 6.72 2.24 1.28 5.707 2.187 10.4 2.72v3.2c-2.027-.213-4.693-.32-8-.32-3.307-.107-6.4-.16-9.28-.16-2.453 0-4.96.053-7.52.16-2.56 0-4.693.107-6.4.32v-3.2c3.413-.533 5.973-1.44 7.68-2.72 1.707-1.28 2.827-3.36 3.36-6.24.64-2.987.96-7.04.96-12.16v-72c0-3.947-.32-6.827-.96-8.64-.533-1.92-1.707-3.2-3.52-3.84-1.707-.747-4.213-1.173-7.52-1.28v-3.2c1.707.107 3.84.213 6.4.32 2.56.107 5.067.16 7.52.16 4.587 0 9.067-.053 13.44-.16 4.48-.107 8.427-.213 11.84-.32l33.6 81.12-4 3.68L106.56 4.7h11.36c4.693 0 9.28-.053 13.76-.16 4.587-.107 8.373-.213 11.36-.32Z" fill="currentColor"/>
  <path d="M270.88 4.22v3.2c-3.413.427-5.973 1.333-7.68 2.72-1.707 1.28-2.88 3.36-3.52 6.24-.533 2.88-.8 6.933-.8 12.16v89.28a48.045 48.045 0 0 0-4-.16c-1.28 0-2.667.053-4.16.16l-69.44-88v61.44c0 5.867.32 10.4.96 13.6.64 3.093 2.027 5.333 4.16 6.72 2.24 1.28 5.707 2.187 10.4 2.72v3.2c-2.027-.213-4.693-.32-8-.32-3.307-.107-6.4-.16-9.28-.16-2.453 0-4.96.053-7.52.16-2.56 0-4.693.107-6.4.32v-3.2c3.413-.533 5.973-1.44 7.68-2.72 1.707-1.28 2.827-3.36 3.36-6.24.64-2.987.96-7.04.96-12.16v-72c0-3.947-.32-6.827-.96-8.64-.533-1.92-1.707-3.2-3.52-3.84-1.707-.747-4.213-1.173-7.52-1.28v-3.2c1.707.107 3.84.213 6.4.32 2.56.107 5.067.16 7.52.16 2.56 0 5.013-.053 7.36-.16 2.347-.107 4.48-.213 6.4-.32l61.92 76.32V30.46c0-5.867-.32-10.347-.96-13.44-.64-3.2-2.08-5.493-4.32-6.88-2.133-1.387-5.547-2.293-10.24-2.72v-3.2c2.027.107 4.693.213 8 .32 3.307.107 6.4.16 9.28.16 2.56 0 5.067-.053 7.52-.16a318.14 318.14 0 0 0 6.4-.32Z" fill="currentColor"/>
  <path d="M392.72 4.22a438.5 438.5 0 0 0-.96 15.68c-.107 5.013-.16 8.853-.16 11.52 0 2.347.053 4.587.16 6.72a261.4 261.4 0 0 0 .32 5.44h-3.68c-1.707-8.96-3.893-16.053-6.56-21.28-2.56-5.227-5.653-8.907-9.28-11.04-3.627-2.24-7.893-3.36-12.8-3.36h-3.68v91.36c0 4.267.427 7.467 1.28 9.6.96 2.133 2.667 3.573 5.12 4.32 2.453.64 6.027 1.013 10.72 1.12v3.2c-3.307-.107-7.733-.213-13.28-.32-5.44-.107-11.147-.16-17.12-.16-5.867 0-11.413.053-16.64.16-5.227.107-9.44.213-12.64.32v-3.2c4.8-.107 8.427-.48 10.88-1.12 2.453-.747 4.107-2.187 4.96-4.32.853-2.133 1.28-5.333 1.28-9.6V7.9h-3.52c-4.907 0-9.173 1.12-12.8 3.36-3.627 2.133-6.72 5.813-9.28 11.04-2.56 5.12-4.8 12.213-6.72 21.28h-3.68c.213-1.493.32-3.307.32-5.44.107-2.133.16-4.373.16-6.72 0-2.667-.107-6.507-.32-11.52a275.805 275.805 0 0 0-.8-15.68c4.907.107 10.24.213 16 .32a968.2 968.2 0 0 0 17.6.16h31.68a968.2 968.2 0 0 0 17.6-.16c5.867-.107 11.147-.213 15.84-.32Z" fill="currentColor"/>
  <path d="M520.88 4.22v3.2c-3.413.427-5.973 1.333-7.68 2.72-1.707 1.28-2.88 3.36-3.52 6.24-.533 2.88-.8 6.933-.8 12.16v89.28a48.045 48.045 0 0 0-4-.16c-1.28 0-2.667.053-4.16.16l-69.44-88v61.44c0 5.867.32 10.4.96 13.6.64 3.093 2.027 5.333 4.16 6.72 2.24 1.28 5.707 2.187 10.4 2.72v3.2c-2.027-.213-4.693-.32-8-.32-3.307-.107-6.4-.16-9.28-.16-2.453 0-4.96.053-7.52.16-2.56 0-4.693.107-6.4.32v-3.2c3.413-.533 5.973-1.44 7.68-2.72 1.707-1.28 2.827-3.36 3.36-6.24.64-2.987.96-7.04.96-12.16v-72c0-3.947-.32-6.827-.96-8.64-.533-1.92-1.707-3.2-3.52-3.84-1.707-.747-4.213-1.173-7.52-1.28v-3.2c1.707.107 3.84.213 6.4.32 2.56.107 5.067.16 7.52.16 2.56 0 5.013-.053 7.36-.16 2.347-.107 4.48-.213 6.4-.32l61.92 76.32V30.46c0-5.867-.32-10.347-.96-13.44-.64-3.2-2.08-5.493-4.32-6.88-2.133-1.387-5.547-2.293-10.24-2.72v-3.2c2.027.107 4.693.213 8 .32 3.307.107 6.4.16 9.28.16 2.56 0 5.067-.053 7.52-.16a318.14 318.14 0 0 0 6.4-.32Z" fill="currentColor"/>
</svg>
